<svg xmlns="http://www.w3.org/2000/svg" xmlns:xlink="http://www.w3.org/1999/xlink" width="159px" height="63px" viewBox="0 0 159 63"><title>lleaf</title><g id="Home-2" stroke="none" stroke-width="1" fill="none" fill-rule="evenodd"><g id="Fiore-Home-2" transform="translate(-641.000000, -1933.000000)" fill="#6A6E49" fill-rule="nonzero"><g id="Group-16-Copy-5" transform="translate(94.000000, 1933.956803)"><g id="lleaf" transform="translate(626.401982, 30.771503) rotate(271.000000) translate(-626.401982, -30.771503) translate(597.000000, -47.956803)"><g id="Group" transform="translate(0.000000, -0.000000)"><path d="M53.8202704,5.46906085 C42.2865953,22.5415163 33.1477221,41.6032975 29.36239,62.0055424 C25.4998063,82.8235252 27.8675701,104.181579 34.2022075,124.261335 C37.8098607,135.692187 42.5531136,146.901572 48.4165157,157.349417 C48.5555687,157.594197 48.9186516,157.376615 48.7911863,157.127949 C39.069063,138.147761 31.2859567,118.219536 28.833216,96.8653672 C27.6358151,86.448605 27.701479,75.888083 29.2928635,65.5179456 C30.837897,55.4430987 33.7155219,45.5974906 37.5587928,36.1753912 C41.9428253,25.4244845 47.5899228,15.2291902 54.0288499,5.59339371 C54.1138268,5.46129005 53.9052472,5.34084259 53.8202704,5.46906085 L53.8202704,5.46906085 Z" id="Path"></path><path d="M35.2566928,124.673188 C34.6927556,115.682368 36.5583836,107.181109 39.551886,98.7459017 C42.4449612,90.5865579 46.1337287,82.6525675 48.1422723,74.1979332 C48.2079362,73.9142988 47.7869146,73.7977368 47.7096629,74.0774857 C45.2800977,82.7030777 41.6878948,90.8857339 38.7948196,99.3520244 C36.0639728,107.348181 33.7734607,116.195241 35.0210752,124.704271 C35.0403881,124.836375 35.2682806,124.805292 35.2566928,124.673188 L35.2566928,124.673188 Z" id="Path"></path><path d="M28.1147755,92.6030815 C33.0666078,85.1897349 32.8194025,75.7443231 36.5004448,67.7909056 C38.6016904,63.2566417 41.9196498,59.4062086 45.3109984,55.7966703 C48.7177973,52.1715904 52.4181525,48.8884259 56.2536982,45.7334796 C56.4700029,45.5547512 56.1764465,45.166211 55.9524166,45.3410541 C51.9894057,48.348355 48.3238137,51.771394 44.9170148,55.4003593 C41.6608567,58.8739085 38.4664999,62.5805818 36.3536666,66.8894924 C32.3558924,75.0294092 32.5876475,84.5952684 27.8559823,92.4476654 C27.7516926,92.6186231 28.0066231,92.7662684 28.1147755,92.6030815 L28.1147755,92.6030815 Z" id="Path"></path><path d="M19.5050763,29.3409695 C22.2320604,38.1025505 22.2320604,47.2915258 22.5410671,56.3755952 C22.8268983,64.8729689 23.3946981,73.7549974 27.2109309,81.506374 C27.3615716,81.8094353 27.7980436,81.545228 27.6589906,81.2421666 C20.2119291,64.7758338 25.5152566,46.1103636 19.6904803,29.2865738 C19.655717,29.1700118 19.4664504,29.2166366 19.5050763,29.3409695 L19.5050763,29.3409695 Z" id="Path"></path><path d="M3.32857545,76.1561757 C5.28690542,79.2800387 7.28386123,82.3844748 9.27695445,85.4850254 C11.0653307,88.2708585 12.7532798,91.1810244 14.8004492,93.7842436 C16.8128554,96.340838 19.3621607,98.3884447 21.8226265,100.486562 C24.6461752,102.895511 27.4581362,105.320002 30.3048605,107.697867 C30.5636536,107.91545 30.9383242,107.546337 30.6795311,107.320983 C28.0066231,105.01694 25.2950893,102.751751 22.5990058,100.47102 C20.1230897,98.3767885 17.5081204,96.360265 15.4261878,93.8464101 C13.2361028,91.2004514 11.4786272,88.1620672 9.60141148,85.2868699 C7.58514276,82.1940901 5.56887403,79.1051956 3.51784206,76.0357282 C3.44445296,75.9191662 3.24746119,76.0279574 3.32857545,76.1561757 L3.32857545,76.1561757 Z" id="Path"></path><path d="M35.9442327,110.868355 C34.3605734,107.4764 33.3949275,104.033934 33.5919192,100.253438 C33.7811858,96.5584205 34.9322358,92.956653 36.4734067,89.6229783 C37.8987001,86.5379693 39.7141145,83.7443654 41.9544131,81.1955418 C44.0093076,78.8565299 46.4311477,76.6496217 48.0263948,73.9453821 C48.2195239,73.6190083 47.7521513,73.374228 47.5358466,73.6578623 C45.3032732,76.5874553 42.7616931,79.2062161 40.4402802,82.058101 C38.2965463,84.6924034 36.6279101,87.6647358 35.3300819,90.8041404 C32.6803495,97.211168 31.8846572,104.877066 35.6699893,111.031542 C35.7781416,111.2025 36.0292096,111.050969 35.9442327,110.868355 L35.9442327,110.868355 Z" id="Path"></path><path d="M47.7753268,73.9881215 C47.2577406,77.4150459 47.1998018,80.8341994 47.5088085,84.2844362 C47.8255404,87.8512351 48.2890505,91.4646588 47.4431446,94.996489 C46.6938034,98.1358936 45.1294569,101.00332 43.3719813,103.676477 C41.7033451,106.217529 39.6136873,110.021338 36.1953007,110.134014 C35.7588287,110.149556 35.7549661,110.82173 36.1953007,110.82173 C39.0767882,110.82173 40.9578665,108.350615 42.4835871,106.198102 C44.4650925,103.400613 46.3461708,100.467135 47.4972208,97.211168 C48.7448353,93.6793378 48.683034,90.0659141 48.3354015,86.3825532 C48.15386,84.4592793 47.922105,82.5398908 47.875754,80.6088461 C47.8255404,78.4135941 48.0534328,76.2299983 48.1268219,74.0347463 C48.1345471,73.8365908 47.8062275,73.7860806 47.7753268,73.9881215 L47.7753268,73.9881215 Z" id="Path"></path><path d="M0.273271695,71.672422 C1.33548223,75.017753 3.33630062,77.8657525 4.97403614,80.9313345 C6.80103826,84.3543735 7.99457664,88.0649322 9.62458699,91.5812208 C12.1005032,96.9197629 16.9248703,103.353988 23.618728,102.491429 C23.9586353,102.44869 23.9856734,101.935817 23.618728,101.935817 C16.3416202,101.943587 12.1700297,96.1115993 9.48939655,89.9920915 C8.12976707,86.8876554 6.99416744,83.682199 5.36029451,80.7059812 C3.70324608,77.6831386 1.66380185,74.8817639 0.466400884,71.6219118 C0.420049878,71.5053497 0.234645858,71.5519746 0.273271695,71.672422 L0.273271695,71.672422 Z" id="Path"></path><path d="M0.0299289183,71.7151614 C1.91100721,74.1279959 3.92727594,75.8803122 6.7430995,77.0809013 C9.78295292,78.3747401 12.297495,80.1581395 14.3832902,82.7574733 C18.8793377,88.3679935 20.4823099,95.6220387 23.1706682,102.153399 C23.3097213,102.495314 23.8582082,102.370982 23.7384681,101.994098 C22.5990058,98.4156426 21.2586893,94.8488437 19.8527088,91.3714091 C18.663033,88.4301599 17.280228,85.5433064 15.3605239,83.0100244 C13.6339489,80.733179 11.4863524,78.7321971 8.92159674,77.4538999 C7.41905166,76.7040173 5.77745356,76.2416545 4.35216015,75.3324705 C2.76077564,74.3183806 1.50157333,72.8924382 0.203745188,71.5403184 C0.0917302585,71.4198709 -0.0666356758,71.5908286 0.0299289183,71.7151614 L0.0299289183,71.7151614 Z" id="Path"></path><path d="M33.9318266,75.5345114 C32.5760597,68.4125699 35.4923104,61.2012642 40.1235484,55.8627221 C42.1784429,53.492627 44.6041455,51.4566765 47.2925038,49.8520055 C50.2242049,48.1035747 53.6155535,47.400317 56.5318042,45.679084 C56.8755742,45.4731577 56.5742926,44.9680555 56.2189349,45.1428986 C52.8353115,46.8136213 49.2469712,47.7888572 46.056477,49.8636617 C43.3256303,51.6392904 40.8844774,53.8617402 38.8643461,56.4183346 C34.688893,61.6985956 31.8383062,68.8710473 33.5417056,75.6394172 C33.603507,75.9036246 33.9820402,75.7909479 33.9318266,75.5345114 L33.9318266,75.5345114 Z" id="Path"></path><path d="M33.7077967,74.7302332 C36.276415,75.8064895 39.7875036,73.5257587 41.7381084,72.0143374 C44.2294749,70.0871781 46.214843,67.5694377 47.8525785,64.8923959 C51.7228874,58.5553056 53.6773548,51.277948 57.7755562,45.0496489 C58.0073112,44.6960774 57.4588243,44.3891306 57.2154815,44.7193898 C53.2408828,50.2094625 51.4525066,56.9312076 48.2697375,62.8564453 C46.8096809,65.5684558 45.0522053,68.1561334 42.8196318,70.289219 C40.5175319,72.4922418 37.0759698,74.8856493 33.7464226,74.4388281 C33.5648812,74.4116303 33.5687437,74.6719522 33.7077967,74.7302332 L33.7077967,74.7302332 Z" id="Path"></path><path d="M36.1412245,38.9417973 C36.118049,30.6386937 37.825311,22.6658492 42.2363817,15.5516785 C44.1753987,12.4239301 46.5431626,9.57981595 49.2469712,7.0931588 C52.0473445,4.51713741 55.1528618,2.58220732 58.4399206,0.713329053 C58.7412021,0.542371374 58.4785464,0.114977177 58.1734023,0.254851642 C51.448644,3.28935044 45.6161425,9.0358597 41.7574213,15.2680442 C37.4776785,22.180174 35.0442507,30.7746827 35.7317906,38.9456827 C35.747241,39.2060046 36.1412245,39.2137754 36.1412245,38.9417973 L36.1412245,38.9417973 Z" id="Path"></path><path d="M58.5017219,0.103320972 C57.1150544,3.68954683 56.4275144,7.48558438 55.3884794,11.1767161 C54.3378566,14.8950456 53.0129904,18.5473233 51.2980032,22.0131017 C49.6873058,25.2690684 47.7212506,28.369619 45.3650745,31.1321397 C44.3105892,32.3676975 43.1788521,33.5372034 41.973726,34.6251159 C40.6527224,35.8179343 38.4549122,38.1297483 36.5429332,37.9277074 C36.1914381,37.8888534 36.1103239,38.4872053 36.4579564,38.5493717 C38.0145776,38.8330061 39.2892303,37.6557293 40.4557306,36.7582015 C41.9351002,35.6158934 43.3179052,34.3531378 44.5964204,32.9893618 C47.1457257,30.2773513 49.2894596,27.2001131 51.0392101,23.9130632 C52.924151,20.3812329 54.3726199,16.6279348 55.5004943,12.7891578 C56.7249334,8.6201217 57.4626869,4.32286732 58.7952783,0.184914409 C58.8570796,-0.00547027854 58.5712484,-0.0754075108 58.5017219,0.103320972 L58.5017219,0.103320972 Z" id="Path"></path><path d="M19.6943429,29.142814 C18.5664684,32.9582785 17.8673407,36.93693 17.2300144,40.8611858 C16.6081384,44.6844212 16.1446284,48.5581667 16.2643685,52.4396831 C16.4536351,58.7923151 18.365614,65.7044449 23.228607,70.0755219 C23.4989879,70.3164168 23.8813837,69.9395328 23.6264531,69.6753255 C12.900058,58.6330136 17.6317231,42.5824188 19.9608611,29.2166366 C19.9878992,29.0456789 19.7445564,28.9679709 19.6943429,29.142814 L19.6943429,29.142814 Z" id="Path"></path><path d="M23.6766667,69.9434182 C22.0659693,64.0920031 20.8608432,58.2561296 20.1308148,52.2298714 C20.0999142,51.9656641 19.6866177,51.9540079 19.7097932,52.2298714 C20.2466923,58.2367026 21.5020321,64.3057002 23.4835375,69.9978138 C23.5221634,70.1182613 23.71143,70.0716365 23.6766667,69.9434182 L23.6766667,69.9434182 Z" id="Path"></path></g></g></g></g></g></svg>