<svg xmlns="http://www.w3.org/2000/svg" xmlns:xlink="http://www.w3.org/1999/xlink" width="313px" height="96px" viewBox="0 0 313 96"><title>leaf-footer</title><g id="Home-2" stroke="none" stroke-width="1" fill="none" fill-rule="evenodd"><g id="Fiore-Home-2" transform="translate(-563.000000, -8526.000000)" fill="#6A6E49" fill-rule="nonzero"><g id="Group-3" transform="translate(-10.000000, 8011.000000)"><g id="Group-2" transform="translate(0.000000, 428.000000)"><g id="leaf-footer" transform="translate(729.636951, 134.979587) scale(1, -1) rotate(271.000000) translate(-729.636951, -134.979587) translate(685.000000, -20.000000)"><g id="Group" transform="translate(0.000000, 0.000000)"><path d="M29.36239,62.0055423 C25.4998063,82.8235252 27.8675701,104.181579 34.2022075,124.261335 C37.8098607,135.692187 42.6880182,147.056272 48.5514204,157.504118 C48.6904734,157.748898 58.7734676,176.475579 49.0513442,157.495392 C39.3292209,138.515204 31.2859567,118.219536 28.833216,96.8653672 C27.6358151,86.448605 27.701479,75.888083 29.2928635,65.5179456 C30.837897,55.4430987 33.7155219,45.5974906 37.5587928,36.1753912 C41.9428253,25.4244845 47.5899228,15.2291902 54.0288499,5.5933937 C54.1138268,5.46129004 53.9052472,5.34084259 53.8202704,5.46906085 C42.2865953,22.5415163 33.1477221,41.6032975 29.36239,62.0055423 Z" id="Path"></path><path d="M52.5524949,212.394704 C48.6899112,233.212687 51.057675,254.570741 57.3923124,274.650497 C60.286684,283.821316 63.888,292.508338 68.0825838,301.168727 C69.1162865,303.302972 69.8434794,305.883358 71.0027529,307.949038 C71.079211,308.08363 71.1858495,308.94662 71.4136945,308.98881 C71.6002276,309.023351 71.5146511,308.60265 71.4572724,308.490713 C70.3163589,306.263344 69.6499679,303.490227 68.5806812,301.212305 C60.5382014,284.079256 54.1882269,266.102737 52.0233209,247.254529 C50.82592,236.837767 50.8915839,226.277245 52.4829684,215.907107 C54.0280019,205.832261 56.9056268,195.986652 60.7488977,186.564553 C65.1329302,175.813646 70.7800277,165.618352 77.2189548,155.982556 C77.3039317,155.850452 77.0953522,155.730004 77.0103753,155.858223 C65.4767002,172.930678 56.337827,191.992459 52.5524949,212.394704 Z" id="Path" transform="translate(63.960782, 232.397193) rotate(174.000000) translate(-63.960782, -232.397193) "></path><g id="Group-44" transform="translate(33.083875, 73.533111)"><path d="M2.17281794,51.1400769 C1.60888071,42.1492571 3.47450867,33.647998 6.46801108,25.2127907 C9.36108632,17.0534469 13.0498538,9.11945648 15.0583974,0.664822177 C15.1240613,0.381187846 14.7030397,0.264625792 14.625788,0.544374721 C12.1962228,9.1699667 8.60401991,17.3526229 5.71094467,25.8189134 C2.98009795,33.8150703 0.689585775,42.6621302 1.93720033,51.1711601 C1.95651325,51.3032638 2.18440569,51.2721805 2.17281794,51.1400769 L2.17281794,51.1400769 Z" id="Path"></path><path d="M2.86035785,37.3352443 C1.27669851,33.9432885 0.311052566,30.5008226 0.508044338,26.7203266 C0.697310942,23.0253095 1.8483609,19.423542 3.38953183,16.0898673 C4.81482523,13.0048583 6.6302396,10.2112544 8.87053819,7.66243081 C10.9254327,5.32341893 13.3472728,3.11651071 14.9425199,0.412271062 C15.135649,0.085897311 14.6682764,-0.158883002 14.4519717,0.124751329 C12.2193983,3.05434428 9.67781819,5.67310509 7.35640535,8.52499001 C5.21267136,11.1592924 3.54403518,14.1316248 2.24620703,17.2710294 C-0.40352543,23.678057 -1.19921769,31.3439547 2.5861144,37.4984312 C2.69426675,37.6693889 2.94533469,37.5178582 2.86035785,37.3352443 L2.86035785,37.3352443 Z" id="Path"></path><path d="M14.6914519,0.455010479 C14.1738657,3.88193486 14.1159269,7.30108844 14.4249336,10.7513252 C14.7416655,14.3181241 15.2051756,17.9315477 14.3592697,21.463378 C13.6099285,24.6027826 12.045582,27.4702092 10.2881064,30.1433656 C8.61947024,32.6844184 6.52981242,36.4882267 3.11142579,36.6009034 C2.67495383,36.616445 2.67109125,37.2886195 3.11142579,37.2886195 C5.99291328,37.2886195 7.87399157,34.8175039 9.39971216,32.6649913 C11.3812176,29.8675021 13.2622959,26.9340237 14.4133459,23.678057 C15.6609604,20.1462268 15.5991591,16.5328031 15.2515266,12.8494422 C15.0699851,10.9261683 14.8382301,9.00677983 14.7918791,7.07573514 C14.7416655,4.88048312 14.9695579,2.69688731 15.042947,0.501635301 C15.0506722,0.303479809 14.7223526,0.252969586 14.6914519,0.455010479 L14.6914519,0.455010479 Z" id="Path"></path></g><g id="Group-44" transform="translate(73.805723, 171.837389)"><path d="M2.17281794,51.1400769 C1.60888071,42.1492571 3.47450867,33.647998 6.46801108,25.2127907 C9.36108632,17.0534469 13.0498538,9.11945648 15.0583974,0.664822177 C15.1240613,0.381187846 14.7030397,0.264625792 14.625788,0.544374721 C12.1962228,9.1699667 8.60401991,17.3526229 5.71094467,25.8189134 C2.98009795,33.8150703 0.689585775,42.6621302 1.93720033,51.1711601 C1.95651325,51.3032638 2.18440569,51.2721805 2.17281794,51.1400769 L2.17281794,51.1400769 Z" id="Path"></path><path d="M2.86035785,37.3352443 C1.27669851,33.9432885 0.311052566,30.5008226 0.508044338,26.7203266 C0.697310942,23.0253095 1.8483609,19.423542 3.38953183,16.0898673 C4.81482523,13.0048583 6.6302396,10.2112544 8.87053819,7.66243081 C10.9254327,5.32341893 13.3472728,3.11651071 14.9425199,0.412271062 C15.135649,0.085897311 14.6682764,-0.158883002 14.4519717,0.124751329 C12.2193983,3.05434428 9.67781819,5.67310509 7.35640535,8.52499001 C5.21267136,11.1592924 3.54403518,14.1316248 2.24620703,17.2710294 C-0.40352543,23.678057 -1.19921769,31.3439547 2.5861144,37.4984312 C2.69426675,37.6693889 2.94533469,37.5178582 2.86035785,37.3352443 L2.86035785,37.3352443 Z" id="Path"></path><path d="M14.6914519,0.455010479 C14.1738657,3.88193486 14.1159269,7.30108844 14.4249336,10.7513252 C14.7416655,14.3181241 15.2051756,17.9315477 14.3592697,21.463378 C13.6099285,24.6027826 12.045582,27.4702092 10.2881064,30.1433656 C8.61947024,32.6844184 6.52981242,36.4882267 3.11142579,36.6009034 C2.67495383,36.616445 2.67109125,37.2886195 3.11142579,37.2886195 C5.99291328,37.2886195 7.87399157,34.8175039 9.39971216,32.6649913 C11.3812176,29.8675021 13.2622959,26.9340237 14.4133459,23.678057 C15.6609604,20.1462268 15.5991591,16.5328031 15.2515266,12.8494422 C15.0699851,10.9261683 14.8382301,9.00677983 14.7918791,7.07573514 C14.7416655,4.88048312 14.9695579,2.69688731 15.042947,0.501635301 C15.0506722,0.303479809 14.7223526,0.252969586 14.6914519,0.455010479 L14.6914519,0.455010479 Z" id="Path"></path></g><path d="M28.1147755,92.6030815 C33.0666078,85.1897349 32.8194025,75.7443231 36.5004448,67.7909056 C38.6016904,63.2566417 41.9196498,59.4062085 45.3109984,55.7966703 C48.7177973,52.1715904 52.4181525,48.8884259 56.2536982,45.7334796 C56.4700029,45.5547512 56.1764465,45.166211 55.9524166,45.3410541 C51.9894057,48.348355 48.3238137,51.771394 44.9170148,55.4003593 C41.6608567,58.8739085 38.4664999,62.5805818 36.3536666,66.8894924 C32.3558924,75.0294092 32.5876475,84.5952684 27.8559823,92.4476654 C27.7516926,92.6186231 28.0066231,92.7662683 28.1147755,92.6030815 L28.1147755,92.6030815 Z" id="Path"></path><path d="M19.5050763,29.3409695 C22.2320604,38.1025505 22.2320604,47.2915258 22.5410671,56.3755951 C22.8268983,64.8729689 23.3946981,73.7549974 27.2109309,81.506374 C27.3615716,81.8094353 27.7980436,81.545228 27.6589906,81.2421666 C20.2119291,64.7758338 25.5152566,46.1103636 19.6904803,29.2865738 C19.655717,29.1700118 19.4664504,29.2166366 19.5050763,29.3409695 L19.5050763,29.3409695 Z" id="Path"></path><g id="Group-33" transform="translate(0.000000, 71.499278)"><path d="M3.32857545,4.65689762 C5.28690542,7.78076067 7.28386123,10.8851967 9.27695445,13.9857473 C11.0653307,16.7715804 12.7532798,19.6817464 14.8004492,22.2849656 C16.8128554,24.8415599 19.3621607,26.8891667 21.8226265,28.9872837 C24.6461752,31.3962328 27.4581362,33.8207235 30.3048605,36.1985894 C30.5636536,36.4161719 30.9383242,36.0470587 30.6795311,35.8217054 C28.0066231,33.5176621 25.2950893,31.2524729 22.5990058,28.9717421 C20.1230897,26.8775105 17.5081204,24.860987 15.4261878,22.347132 C13.2361028,19.7011734 11.4786272,16.6627892 9.60141148,13.7875918 C7.58514276,10.694812 5.56887403,7.60591759 3.51784206,4.53645017 C3.44445296,4.41988812 3.24746119,4.52867937 3.32857545,4.65689762 L3.32857545,4.65689762 Z" id="Path"></path><path d="M0.273271695,0.173143957 C1.33548223,3.5184749 3.33630062,6.36647442 4.97403614,9.43205643 C6.80103826,12.8550954 7.99457664,16.5656541 9.62458699,20.0819427 C12.1005032,25.4204848 16.9248703,31.8547102 23.618728,30.992151 C23.9586353,30.9494116 23.9856734,30.4365385 23.618728,30.4365385 C16.3416202,30.4443093 12.1700297,24.6123212 9.48939655,18.4928134 C8.12976707,15.3883774 6.99416744,12.1829209 5.36029451,9.20670313 C3.70324608,6.18386053 1.66380185,3.38248584 0.466400884,0.122633733 C0.420049878,0.00607167958 0.234645858,0.0526965011 0.273271695,0.173143957 L0.273271695,0.173143957 Z" id="Path"></path><path d="M0.0299289183,0.215883374 C1.91100721,2.62871789 3.92727594,4.3810341 6.7430995,5.58162325 C9.78295292,6.87546205 12.297495,8.65886147 14.3832902,11.2581953 C18.8793377,16.8687155 20.4823099,24.1227606 23.1706682,30.654121 C23.3097213,30.9960364 23.8582082,30.8717035 23.7384681,30.4948196 C22.5990058,26.9163645 21.2586893,23.3495657 19.8527088,19.872131 C18.663033,16.9308819 17.280228,14.0440284 15.3605239,11.5107464 C13.6339489,9.23390094 11.4863524,7.23291901 8.92159674,5.95462182 C7.41905166,5.20473928 5.77745356,4.74237646 4.35216015,3.83319244 C2.76077564,2.81910258 1.50157333,1.39316012 0.203745188,0.0410402937 C0.0917302585,-0.079407162 -0.0666356758,0.091550517 0.0299289183,0.215883374 L0.0299289183,0.215883374 Z" id="Path"></path></g><g id="Group-33" transform="translate(46.244659, 199.711725)"><path d="M9.27695445,13.9857473 C11.0653307,16.7715804 12.7532798,19.6817464 14.8004492,22.2849656 C16.8128554,24.8415599 19.3621607,26.8891667 21.8226265,28.9872837 C24.6461752,31.3962328 27.9397893,34.2150391 30.7865135,36.5929049 C31.0453066,36.8104875 30.9383242,36.0470587 30.6795311,35.8217054 C28.0066231,33.5176621 25.2950893,31.2524729 22.5990058,28.9717421 C20.1230897,26.8775105 17.5081204,24.860987 15.4261878,22.347132 C13.2361028,19.7011734 11.4786272,16.6627892 9.60141148,13.7875918 C7.58514276,10.694812 5.56887403,7.60591759 3.51784206,4.53645017 C3.44445296,4.41988812 3.24746119,4.52867937 3.32857545,4.65689762 C5.28690542,7.78076067 7.28386123,10.8851967 9.27695445,13.9857473 Z" id="Path"></path><path d="M0.273271695,0.173143957 C1.33548223,3.5184749 3.33630062,6.36647442 4.97403614,9.43205643 C6.80103826,12.8550954 7.99457664,16.5656541 9.62458699,20.0819427 C12.1005032,25.4204848 16.9248703,31.8547102 23.618728,30.992151 C23.9586353,30.9494116 23.9856734,30.4365385 23.618728,30.4365385 C16.3416202,30.4443093 12.1700297,24.6123212 9.48939655,18.4928134 C8.12976707,15.3883774 6.99416744,12.1829209 5.36029451,9.20670313 C3.70324608,6.18386053 1.66380185,3.38248584 0.466400884,0.122633733 C0.420049878,0.00607167958 0.234645858,0.0526965011 0.273271695,0.173143957 L0.273271695,0.173143957 Z" id="Path"></path><path d="M0.0299289183,0.215883374 C1.91100721,2.62871789 3.92727594,4.3810341 6.7430995,5.58162325 C9.78295292,6.87546205 12.297495,8.65886147 14.3832902,11.2581953 C18.8793377,16.8687155 20.4823099,24.1227606 23.1706682,30.654121 C23.3097213,30.9960364 23.8582082,30.8717035 23.7384681,30.4948196 C22.5990058,26.9163645 21.2586893,23.3495657 19.8527088,19.872131 C18.663033,16.9308819 17.280228,14.0440284 15.3605239,11.5107464 C13.6339489,9.23390094 11.4863524,7.23291901 8.92159674,5.95462182 C7.41905166,5.20473928 5.77745356,4.74237646 4.35216015,3.83319244 C2.76077564,2.81910258 1.50157333,1.39316012 0.203745188,0.0410402937 C0.0917302585,-0.079407162 -0.0666356758,0.091550517 0.0299289183,0.215883374 L0.0299289183,0.215883374 Z" id="Path"></path></g><path d="M33.9318266,75.5345114 C32.5760597,68.4125699 35.4923104,61.2012642 40.1235484,55.8627221 C42.1784429,53.492627 44.6041455,51.4566765 47.2925038,49.8520055 C50.2242049,48.1035747 53.6155535,47.400317 56.5318042,45.679084 C56.8755742,45.4731577 56.5742926,44.9680555 56.2189349,45.1428986 C52.8353115,46.8136213 49.2469712,47.7888572 46.056477,49.8636617 C43.3256303,51.6392904 40.8844774,53.8617402 38.8643461,56.4183346 C34.688893,61.6985956 31.8383062,68.8710473 33.5417056,75.6394172 C33.603507,75.9036246 33.9820402,75.7909479 33.9318266,75.5345114 L33.9318266,75.5345114 Z" id="Path"></path><path d="M33.7077967,74.7302332 C36.276415,75.8064895 39.7875036,73.5257587 41.7381084,72.0143374 C44.2294749,70.0871781 46.214843,67.5694377 47.8525785,64.8923959 C51.7228874,58.5553056 53.6773548,51.277948 57.7755562,45.0496489 C58.0073112,44.6960774 57.4588243,44.3891306 57.2154815,44.7193898 C53.2408828,50.2094625 51.4525066,56.9312076 48.2697375,62.8564453 C46.8096809,65.5684558 45.0522053,68.1561334 42.8196318,70.289219 C40.5175319,72.4922418 37.0759698,74.8856493 33.7464226,74.4388281 C33.5648812,74.4116303 33.5687437,74.6719522 33.7077967,74.7302332 L33.7077967,74.7302332 Z" id="Path"></path><path d="M36.1412245,38.9417973 C36.118049,30.6386937 37.825311,22.6658492 42.2363817,15.5516785 C44.1753987,12.4239301 46.5431626,9.57981594 49.2469712,7.0931588 C52.0473445,4.51713741 55.1528618,2.58220731 58.4399206,0.713329051 C58.7412021,0.542371372 58.4785464,0.114977175 58.1734023,0.25485164 C51.448644,3.28935044 45.6161425,9.03585969 41.7574213,15.2680442 C37.4776785,22.180174 35.0442507,30.7746827 35.7317906,38.9456827 C35.747241,39.2060046 36.1412245,39.2137754 36.1412245,38.9417973 L36.1412245,38.9417973 Z" id="Path"></path><path d="M58.5017219,0.103320972 C57.1150544,3.68954683 56.4275144,7.48558438 55.3884794,11.1767161 C54.3378566,14.8950456 53.0129904,18.5473233 51.2980032,22.0131017 C49.6873058,25.2690684 47.7212506,28.369619 45.3650745,31.1321397 C44.3105892,32.3676975 43.1788521,33.5372034 41.973726,34.6251159 C40.6527224,35.8179343 38.4549122,38.1297483 36.5429332,37.9277074 C36.1914381,37.8888534 36.1103239,38.4872053 36.4579564,38.5493717 C38.0145776,38.8330061 39.2892303,37.6557293 40.4557306,36.7582015 C41.9351002,35.6158934 43.3179052,34.3531378 44.5964204,32.9893618 C47.1457257,30.2773513 49.2894596,27.2001131 51.0392101,23.9130632 C52.924151,20.3812329 54.3726199,16.6279348 55.5004943,12.7891578 C56.7249334,8.6201217 57.4626869,4.32286732 58.7952783,0.184914409 C58.8570796,-0.00547027854 58.5712484,-0.0754075108 58.5017219,0.103320972 L58.5017219,0.103320972 Z" id="Path"></path><path d="M19.6943429,29.142814 C18.5664684,32.9582785 17.8673407,36.93693 17.2300144,40.8611858 C16.6081384,44.6844212 16.1446284,48.5581667 16.2643685,52.4396831 C16.4536351,58.7923151 18.365614,65.7044449 23.228607,70.0755219 C23.4989879,70.3164168 23.8813837,69.9395328 23.6264531,69.6753255 C12.900058,58.6330136 17.6317231,42.5824188 19.9608611,29.2166366 C19.9878992,29.0456789 19.7445564,28.9679709 19.6943429,29.142814 L19.6943429,29.142814 Z" id="Path"></path><path d="M23.6766667,69.9434182 C22.0659693,64.0920031 20.8608432,58.2561296 20.1308148,52.2298714 C20.0999142,51.9656641 19.6866177,51.9540079 19.7097932,52.2298714 C20.2466923,58.2367026 21.5020321,64.3057002 23.4835375,69.9978138 C23.5221634,70.1182613 23.71143,70.0716365 23.6766667,69.9434182 L23.6766667,69.9434182 Z" id="Path"></path></g></g></g></g></g></g></svg>